<svg xmlns="http://www.w3.org/2000/svg" width="1569" height="1004" viewBox="0 0 1569 1004">
  <defs>
    <style>
      .cls-1 {
        fill-rule: evenodd;
      }
    </style>
  </defs>
  <path id="Color_Fill_1" data-name="Color Fill 1" class="cls-1" d="M0,0H1569V709l-48,4c-25.55-6.454-25.08-41.7-38-61-9.89-2.8-26.14-.109-36-4-12.62-4.981-51.34-42.582-60-54l-9-14c-9.29-8.181-28.65-6.944-36-17-12.43-17.016,2.18-43.992-20-52l-72-5c-68.66-10.5-137.14-3.019-202-13l-73,2c-20.962-10.492-16.531-53.419-48-47-11.446,16.5,5.7,28.188-2,40l-18,9-13,13-25,9c-12.654,8.414-22.275,35.612-25,53-2.96,18.885,15.945,25.53,19,41q0.5,43.5,1,87c3.08,20.518,3.438,55.151-1,74-14.418,9.413-46.509,6-70,6H0V0ZM1569,813H1406c-17.37,0-51.41,4.9-63-3-8.65-5.9-8.59-76.471-6-93,2.68-17.1-5.22-44.064,3-56,15.48-22.474,50.86-1.356,63,8l12,12c11.27,7.007,25.89,8.341,36,16q25.5,24.5,51,49,17.505,7,35,14,16.005,14.5,32,29v24Z"/>
</svg>
